<mxfile host="app.diagrams.net" modified="2021-12-27T06:30:06.706Z" agent="5.0 (Macintosh; Intel Mac OS X 10_15_7) AppleWebKit/537.36 (KHTML, like Gecko) Chrome/96.0.4664.110 Safari/537.36" etag="cE7BH8M845D1XH6JL7UE" version="16.1.0" type="github">
  <diagram id="0ukZKr90bTUuSdiklAe3" name="Page-1">
    <mxGraphModel dx="2527" dy="1072" grid="1" gridSize="10" guides="1" tooltips="1" connect="1" arrows="1" fold="1" page="1" pageScale="1" pageWidth="827" pageHeight="1169" math="0" shadow="0">
      <root>
        <mxCell id="0" />
        <mxCell id="1" parent="0" />
        <mxCell id="g89Bsq32T66uB00S3wTt-89" value="" style="fillColor=default;strokeColor=default;dashed=0;verticalAlign=top;fontStyle=0;fontColor=#232F3D;fontSize=21;gradientColor=none;strokeWidth=2;" parent="1" vertex="1">
          <mxGeometry x="-200" y="230" width="1280" height="840" as="geometry" />
        </mxCell>
        <mxCell id="g89Bsq32T66uB00S3wTt-79" value="" style="fillColor=#7CF3B0;strokeColor=default;dashed=0;verticalAlign=top;fontStyle=0;fontColor=#000000;fontSize=21;opacity=30;" parent="1" vertex="1">
          <mxGeometry x="80" y="280" width="960" height="720" as="geometry" />
        </mxCell>
        <mxCell id="g89Bsq32T66uB00S3wTt-1" value="ShareService Account" style="points=[[0,0],[0.25,0],[0.5,0],[0.75,0],[1,0],[1,0.25],[1,0.5],[1,0.75],[1,1],[0.75,1],[0.5,1],[0.25,1],[0,1],[0,0.75],[0,0.5],[0,0.25]];outlineConnect=0;gradientColor=none;html=1;whiteSpace=wrap;fontSize=14;fontStyle=0;container=1;pointerEvents=0;collapsible=0;recursiveResize=0;shape=mxgraph.aws4.group;grIcon=mxgraph.aws4.group_aws_cloud_alt;strokeColor=#232F3E;fillColor=none;verticalAlign=top;align=left;spacingLeft=30;fontColor=#232F3E;dashed=0;strokeWidth=2;" parent="1" vertex="1">
          <mxGeometry x="160" y="340" width="360" height="440" as="geometry" />
        </mxCell>
        <mxCell id="g89Bsq32T66uB00S3wTt-6" value="" style="group;fontSize=14;strokeColor=default;" parent="g89Bsq32T66uB00S3wTt-1" vertex="1" connectable="0">
          <mxGeometry x="70" y="80.50999999999999" width="200" height="200" as="geometry" />
        </mxCell>
        <mxCell id="g89Bsq32T66uB00S3wTt-4" value="Shared cft bucket" style="fillColor=#EFF0F3;strokeColor=none;dashed=0;verticalAlign=top;fontStyle=0;fontColor=#232F3D;fontSize=14;" parent="g89Bsq32T66uB00S3wTt-6" vertex="1">
          <mxGeometry width="200" height="200" as="geometry" />
        </mxCell>
        <mxCell id="g89Bsq32T66uB00S3wTt-2" value="" style="sketch=0;outlineConnect=0;fontColor=#232F3E;gradientColor=none;fillColor=#3F8624;strokeColor=none;dashed=0;verticalLabelPosition=bottom;verticalAlign=top;align=center;html=1;fontSize=14;fontStyle=0;aspect=fixed;pointerEvents=1;shape=mxgraph.aws4.bucket;" parent="g89Bsq32T66uB00S3wTt-6" vertex="1">
          <mxGeometry width="40" height="41.6" as="geometry" />
        </mxCell>
        <mxCell id="g89Bsq32T66uB00S3wTt-3" value="cf" style="sketch=0;outlineConnect=0;fontColor=#232F3E;gradientColor=none;fillColor=#B0084D;strokeColor=none;dashed=0;verticalLabelPosition=bottom;verticalAlign=top;align=center;html=1;fontSize=14;fontStyle=0;aspect=fixed;pointerEvents=1;shape=mxgraph.aws4.template;" parent="g89Bsq32T66uB00S3wTt-6" vertex="1">
          <mxGeometry x="82" y="71" width="40" height="48" as="geometry" />
        </mxCell>
        <mxCell id="g89Bsq32T66uB00S3wTt-8" value="sync code" style="edgeStyle=orthogonalEdgeStyle;rounded=1;orthogonalLoop=1;jettySize=auto;html=1;strokeColor=#FF0000;strokeWidth=3;fontSize=14;labelBackgroundColor=default;" parent="1" source="g89Bsq32T66uB00S3wTt-7" target="g89Bsq32T66uB00S3wTt-3" edge="1">
          <mxGeometry x="-0.9529" y="-91" relative="1" as="geometry">
            <Array as="points">
              <mxPoint x="30" y="579" />
              <mxPoint x="30" y="516" />
            </Array>
            <mxPoint as="offset" />
          </mxGeometry>
        </mxCell>
        <mxCell id="g89Bsq32T66uB00S3wTt-7" value="LandingZone CF Code" style="verticalLabelPosition=bottom;html=1;verticalAlign=top;align=center;strokeColor=none;fillColor=#00BEF2;shape=mxgraph.azure.git_repository;aspect=fixed;fontSize=14;" parent="1" vertex="1">
          <mxGeometry x="-110" y="548.97" width="60" height="60" as="geometry" />
        </mxCell>
        <mxCell id="g89Bsq32T66uB00S3wTt-15" value="Member Account" style="points=[[0,0],[0.25,0],[0.5,0],[0.75,0],[1,0],[1,0.25],[1,0.5],[1,0.75],[1,1],[0.75,1],[0.5,1],[0.25,1],[0,1],[0,0.75],[0,0.5],[0,0.25]];outlineConnect=0;gradientColor=none;html=1;whiteSpace=wrap;fontSize=14;fontStyle=0;container=1;pointerEvents=0;collapsible=0;recursiveResize=0;shape=mxgraph.aws4.group;grIcon=mxgraph.aws4.group_aws_cloud_alt;strokeColor=#232F3E;fillColor=none;verticalAlign=top;align=left;spacingLeft=30;fontColor=#232F3E;dashed=0;strokeWidth=2;" parent="1" vertex="1">
          <mxGeometry x="600" y="360" width="400" height="600" as="geometry" />
        </mxCell>
        <mxCell id="g89Bsq32T66uB00S3wTt-44" value="Stacks" style="fillColor=#2727F3;strokeColor=default;dashed=0;verticalAlign=top;fontStyle=0;fontColor=#232F3D;fontSize=14;opacity=30;" parent="g89Bsq32T66uB00S3wTt-15" vertex="1">
          <mxGeometry x="40" y="38" width="120" height="322" as="geometry" />
        </mxCell>
        <mxCell id="g89Bsq32T66uB00S3wTt-39" value="" style="fillColor=#EFF0F3;strokeColor=default;dashed=0;verticalAlign=top;fontStyle=0;fontColor=#232F3D;fontSize=14;" parent="g89Bsq32T66uB00S3wTt-15" vertex="1">
          <mxGeometry x="200" y="159" width="120" height="41" as="geometry" />
        </mxCell>
        <mxCell id="g89Bsq32T66uB00S3wTt-34" value="" style="fillColor=#EFF0F3;strokeColor=default;dashed=0;verticalAlign=top;fontStyle=0;fontColor=#232F3D;fontSize=14;" parent="g89Bsq32T66uB00S3wTt-15" vertex="1">
          <mxGeometry x="200" y="240" width="120" height="120" as="geometry" />
        </mxCell>
        <mxCell id="g89Bsq32T66uB00S3wTt-40" style="edgeStyle=orthogonalEdgeStyle;rounded=1;orthogonalLoop=1;jettySize=auto;html=1;entryX=0;entryY=0.5;entryDx=0;entryDy=0;strokeColor=#000000;strokeWidth=2;fontSize=14;" parent="g89Bsq32T66uB00S3wTt-15" source="g89Bsq32T66uB00S3wTt-21" target="g89Bsq32T66uB00S3wTt-26" edge="1">
          <mxGeometry relative="1" as="geometry" />
        </mxCell>
        <mxCell id="g89Bsq32T66uB00S3wTt-21" value="create vpc stack" style="sketch=0;outlineConnect=0;fontColor=#232F3E;gradientColor=none;fillColor=#B0084D;strokeColor=none;dashed=0;verticalLabelPosition=bottom;verticalAlign=top;align=center;html=1;fontSize=14;fontStyle=0;aspect=fixed;pointerEvents=1;shape=mxgraph.aws4.stack;" parent="g89Bsq32T66uB00S3wTt-15" vertex="1">
          <mxGeometry x="80" y="59.519999999999996" width="40" height="38.97" as="geometry" />
        </mxCell>
        <mxCell id="g89Bsq32T66uB00S3wTt-37" style="edgeStyle=orthogonalEdgeStyle;rounded=1;orthogonalLoop=1;jettySize=auto;html=1;entryX=0;entryY=0.5;entryDx=0;entryDy=0;strokeColor=#000000;strokeWidth=2;fontSize=14;" parent="g89Bsq32T66uB00S3wTt-15" source="g89Bsq32T66uB00S3wTt-22" target="g89Bsq32T66uB00S3wTt-34" edge="1">
          <mxGeometry relative="1" as="geometry" />
        </mxCell>
        <mxCell id="g89Bsq32T66uB00S3wTt-22" value="create auto remediation stack" style="sketch=0;outlineConnect=0;fontColor=#232F3E;gradientColor=none;fillColor=#B0084D;strokeColor=none;dashed=0;verticalLabelPosition=bottom;verticalAlign=top;align=center;html=1;fontSize=14;fontStyle=0;aspect=fixed;pointerEvents=1;shape=mxgraph.aws4.stack;" parent="g89Bsq32T66uB00S3wTt-15" vertex="1">
          <mxGeometry x="80" y="280" width="40" height="38.97" as="geometry" />
        </mxCell>
        <mxCell id="g89Bsq32T66uB00S3wTt-26" value="VPC" style="points=[[0,0],[0.25,0],[0.5,0],[0.75,0],[1,0],[1,0.25],[1,0.5],[1,0.75],[1,1],[0.75,1],[0.5,1],[0.25,1],[0,1],[0,0.75],[0,0.5],[0,0.25]];outlineConnect=0;gradientColor=none;html=1;whiteSpace=wrap;fontSize=14;fontStyle=0;container=1;pointerEvents=0;collapsible=0;recursiveResize=0;shape=mxgraph.aws4.group;grIcon=mxgraph.aws4.group_vpc;strokeColor=#248814;fillColor=none;verticalAlign=top;align=left;spacingLeft=30;fontColor=#AAB7B8;dashed=0;strokeWidth=2;" parent="g89Bsq32T66uB00S3wTt-15" vertex="1">
          <mxGeometry x="200" y="38" width="120" height="82" as="geometry" />
        </mxCell>
        <mxCell id="g89Bsq32T66uB00S3wTt-27" value="" style="sketch=0;outlineConnect=0;fontColor=#232F3E;gradientColor=none;fillColor=#D45B07;strokeColor=none;dashed=0;verticalLabelPosition=bottom;verticalAlign=top;align=center;html=1;fontSize=14;fontStyle=0;aspect=fixed;pointerEvents=1;shape=mxgraph.aws4.lambda_function;" parent="g89Bsq32T66uB00S3wTt-15" vertex="1">
          <mxGeometry x="210" y="250" width="40" height="38.97" as="geometry" />
        </mxCell>
        <mxCell id="g89Bsq32T66uB00S3wTt-29" value="" style="sketch=0;outlineConnect=0;fontColor=#232F3E;gradientColor=none;fillColor=#B0084D;strokeColor=none;dashed=0;verticalLabelPosition=bottom;verticalAlign=top;align=center;html=1;fontSize=14;fontStyle=0;aspect=fixed;pointerEvents=1;shape=mxgraph.aws4.automation;" parent="g89Bsq32T66uB00S3wTt-15" vertex="1">
          <mxGeometry x="270" y="250" width="40" height="38.97" as="geometry" />
        </mxCell>
        <mxCell id="g89Bsq32T66uB00S3wTt-38" style="edgeStyle=orthogonalEdgeStyle;rounded=1;orthogonalLoop=1;jettySize=auto;html=1;strokeColor=#000000;strokeWidth=2;fontSize=14;" parent="g89Bsq32T66uB00S3wTt-15" source="g89Bsq32T66uB00S3wTt-32" target="g89Bsq32T66uB00S3wTt-35" edge="1">
          <mxGeometry relative="1" as="geometry" />
        </mxCell>
        <mxCell id="g89Bsq32T66uB00S3wTt-32" value="Logging Stack" style="sketch=0;outlineConnect=0;fontColor=#232F3E;gradientColor=none;fillColor=#B0084D;strokeColor=none;dashed=0;verticalLabelPosition=bottom;verticalAlign=top;align=center;html=1;fontSize=14;fontStyle=0;aspect=fixed;pointerEvents=1;shape=mxgraph.aws4.stack;" parent="g89Bsq32T66uB00S3wTt-15" vertex="1">
          <mxGeometry x="80" y="161.02999999999997" width="40" height="38.97" as="geometry" />
        </mxCell>
        <mxCell id="g89Bsq32T66uB00S3wTt-31" value="" style="sketch=0;outlineConnect=0;fontColor=#232F3E;gradientColor=none;fillColor=#BF0816;strokeColor=none;dashed=0;verticalLabelPosition=bottom;verticalAlign=top;align=center;html=1;fontSize=14;fontStyle=0;aspect=fixed;pointerEvents=1;shape=mxgraph.aws4.role;" parent="g89Bsq32T66uB00S3wTt-15" vertex="1">
          <mxGeometry x="270" y="321.03000000000003" width="40" height="38.97" as="geometry" />
        </mxCell>
        <mxCell id="g89Bsq32T66uB00S3wTt-33" value="" style="sketch=0;outlineConnect=0;fontColor=#232F3E;gradientColor=none;fillColor=#BF0816;strokeColor=none;dashed=0;verticalLabelPosition=bottom;verticalAlign=top;align=center;html=1;fontSize=14;fontStyle=0;aspect=fixed;pointerEvents=1;shape=mxgraph.aws4.logs;" parent="g89Bsq32T66uB00S3wTt-15" vertex="1">
          <mxGeometry x="210" y="318.97" width="40" height="29.74" as="geometry" />
        </mxCell>
        <mxCell id="g89Bsq32T66uB00S3wTt-35" value="" style="sketch=0;outlineConnect=0;fontColor=#232F3E;gradientColor=none;fillColor=#BF0816;strokeColor=none;dashed=0;verticalLabelPosition=bottom;verticalAlign=top;align=center;html=1;fontSize=14;fontStyle=0;aspect=fixed;pointerEvents=1;shape=mxgraph.aws4.logs;" parent="g89Bsq32T66uB00S3wTt-15" vertex="1">
          <mxGeometry x="203" y="165.64" width="40" height="29.74" as="geometry" />
        </mxCell>
        <mxCell id="g89Bsq32T66uB00S3wTt-36" value="" style="sketch=0;points=[[0,0,0],[0.25,0,0],[0.5,0,0],[0.75,0,0],[1,0,0],[0,1,0],[0.25,1,0],[0.5,1,0],[0.75,1,0],[1,1,0],[0,0.25,0],[0,0.5,0],[0,0.75,0],[1,0.25,0],[1,0.5,0],[1,0.75,0]];outlineConnect=0;fontColor=#232F3E;gradientColor=#945DF2;gradientDirection=north;fillColor=#5A30B5;strokeColor=#ffffff;dashed=0;verticalLabelPosition=bottom;verticalAlign=top;align=center;html=1;fontSize=14;fontStyle=0;aspect=fixed;shape=mxgraph.aws4.resourceIcon;resIcon=mxgraph.aws4.kinesis_data_firehose;" parent="g89Bsq32T66uB00S3wTt-15" vertex="1">
          <mxGeometry x="277" y="161" width="40" height="40" as="geometry" />
        </mxCell>
        <mxCell id="tX7fqVU8-ZiYfbRzvG7Q-20" value="&lt;span style=&quot;color: rgb(68 , 68 , 68) ; font-family: &amp;#34;helvetica neue&amp;#34; , &amp;#34;roboto&amp;#34; , &amp;#34;arial&amp;#34; , sans-serif ; background-color: rgb(255 , 255 , 255)&quot;&gt;&lt;span class=&quot;Apple-converted-space&quot;&gt;&amp;nbsp;&lt;/span&gt;&lt;/span&gt;&lt;a class=&quot;awsui-breadcrumb-link&quot; href=&quot;https://console.aws.amazon.com/iam/home#/roles/AWSServiceRoleForCloudFormationStackSetsOrgMember&quot; style=&quot;color: rgb(68 , 68 , 68) ; background-color: transparent ; box-sizing: border-box&quot;&gt;AWSServiceRoleForCloudFormationStackSetsOrgMember&lt;/a&gt;" style="sketch=0;outlineConnect=0;fontColor=#232F3E;gradientColor=none;fillColor=#BF0816;strokeColor=none;dashed=0;verticalLabelPosition=bottom;verticalAlign=top;align=center;html=1;fontSize=14;fontStyle=0;aspect=fixed;pointerEvents=1;shape=mxgraph.aws4.role;" vertex="1" parent="g89Bsq32T66uB00S3wTt-15">
          <mxGeometry x="175" y="490" width="50" height="48.71" as="geometry" />
        </mxCell>
        <mxCell id="tX7fqVU8-ZiYfbRzvG7Q-21" style="edgeStyle=orthogonalEdgeStyle;rounded=1;orthogonalLoop=1;jettySize=auto;html=1;fontSize=19;strokeColor=#000000;strokeWidth=2;entryX=0.5;entryY=1;entryDx=0;entryDy=0;" edge="1" parent="g89Bsq32T66uB00S3wTt-15" source="tX7fqVU8-ZiYfbRzvG7Q-20" target="g89Bsq32T66uB00S3wTt-44">
          <mxGeometry relative="1" as="geometry">
            <mxPoint x="-60" y="260" as="targetPoint" />
            <Array as="points">
              <mxPoint x="100" y="464" />
            </Array>
          </mxGeometry>
        </mxCell>
        <mxCell id="g89Bsq32T66uB00S3wTt-23" style="edgeStyle=orthogonalEdgeStyle;rounded=1;orthogonalLoop=1;jettySize=auto;html=1;strokeColor=#3333FF;strokeWidth=2;fontSize=14;dashed=1;dashPattern=1 4;" parent="1" source="g89Bsq32T66uB00S3wTt-4" target="g89Bsq32T66uB00S3wTt-22" edge="1">
          <mxGeometry relative="1" as="geometry">
            <Array as="points">
              <mxPoint x="620" y="541" />
              <mxPoint x="620" y="659" />
            </Array>
          </mxGeometry>
        </mxCell>
        <mxCell id="g89Bsq32T66uB00S3wTt-24" style="edgeStyle=orthogonalEdgeStyle;rounded=1;orthogonalLoop=1;jettySize=auto;html=1;strokeColor=#3333FF;strokeWidth=2;fontSize=14;dashed=1;dashPattern=1 4;" parent="1" source="g89Bsq32T66uB00S3wTt-4" target="g89Bsq32T66uB00S3wTt-21" edge="1">
          <mxGeometry relative="1" as="geometry">
            <Array as="points">
              <mxPoint x="620" y="541" />
              <mxPoint x="620" y="439" />
            </Array>
          </mxGeometry>
        </mxCell>
        <mxCell id="g89Bsq32T66uB00S3wTt-41" style="edgeStyle=orthogonalEdgeStyle;rounded=1;orthogonalLoop=1;jettySize=auto;html=1;strokeColor=#3333FF;strokeWidth=2;fontSize=14;dashed=1;dashPattern=1 4;" parent="1" source="g89Bsq32T66uB00S3wTt-4" target="g89Bsq32T66uB00S3wTt-32" edge="1">
          <mxGeometry relative="1" as="geometry">
            <Array as="points">
              <mxPoint x="500" y="541" />
              <mxPoint x="500" y="541" />
            </Array>
          </mxGeometry>
        </mxCell>
        <mxCell id="g89Bsq32T66uB00S3wTt-45" style="edgeStyle=orthogonalEdgeStyle;rounded=1;orthogonalLoop=1;jettySize=auto;html=1;fontSize=14;strokeColor=#3333FF;strokeWidth=4;dashed=1;" parent="1" source="g89Bsq32T66uB00S3wTt-42" target="tX7fqVU8-ZiYfbRzvG7Q-22" edge="1">
          <mxGeometry relative="1" as="geometry">
            <Array as="points">
              <mxPoint x="50" y="770" />
              <mxPoint x="50" y="711" />
            </Array>
            <mxPoint x="180" y="1080" as="targetPoint" />
          </mxGeometry>
        </mxCell>
        <mxCell id="g89Bsq32T66uB00S3wTt-78" value="Create Stack Set" style="edgeLabel;html=1;align=center;verticalAlign=middle;resizable=0;points=[];fontSize=14;" parent="g89Bsq32T66uB00S3wTt-45" vertex="1" connectable="0">
          <mxGeometry x="0.299" y="1" relative="1" as="geometry">
            <mxPoint x="67" y="-16" as="offset" />
          </mxGeometry>
        </mxCell>
        <mxCell id="g89Bsq32T66uB00S3wTt-73" style="edgeStyle=orthogonalEdgeStyle;rounded=1;orthogonalLoop=1;jettySize=auto;html=1;fontSize=14;strokeColor=#3333FF;strokeWidth=4;dashed=1;dashPattern=1 1;entryX=-0.002;entryY=0.552;entryDx=0;entryDy=0;entryPerimeter=0;" parent="1" source="tX7fqVU8-ZiYfbRzvG7Q-22" target="tX7fqVU8-ZiYfbRzvG7Q-32" edge="1">
          <mxGeometry relative="1" as="geometry">
            <mxPoint x="30" y="845" as="sourcePoint" />
            <Array as="points">
              <mxPoint x="530" y="711" />
              <mxPoint x="530" y="690" />
              <mxPoint x="570" y="690" />
              <mxPoint x="570" y="693" />
            </Array>
            <mxPoint x="670" y="670" as="targetPoint" />
          </mxGeometry>
        </mxCell>
        <mxCell id="tX7fqVU8-ZiYfbRzvG7Q-29" value="Create Stackset Instance" style="edgeLabel;html=1;align=center;verticalAlign=middle;resizable=0;points=[];fontSize=14;" vertex="1" connectable="0" parent="g89Bsq32T66uB00S3wTt-73">
          <mxGeometry x="0.4116" relative="1" as="geometry">
            <mxPoint x="5" y="50" as="offset" />
          </mxGeometry>
        </mxCell>
        <mxCell id="g89Bsq32T66uB00S3wTt-91" style="edgeStyle=orthogonalEdgeStyle;rounded=1;orthogonalLoop=1;jettySize=auto;html=1;labelBackgroundColor=default;fontSize=21;fontColor=#64661D;strokeColor=#000000;strokeWidth=4;dashed=1;" parent="1" source="g89Bsq32T66uB00S3wTt-42" edge="1">
          <mxGeometry relative="1" as="geometry">
            <mxPoint y="582" as="targetPoint" />
            <Array as="points">
              <mxPoint x="-80" y="710" />
              <mxPoint y="710" />
              <mxPoint y="582" />
            </Array>
          </mxGeometry>
        </mxCell>
        <mxCell id="tX7fqVU8-ZiYfbRzvG7Q-9" style="edgeStyle=orthogonalEdgeStyle;rounded=1;orthogonalLoop=1;jettySize=auto;html=1;fontSize=14;strokeColor=#CC0066;strokeWidth=4;dashed=1;" edge="1" parent="1" source="g89Bsq32T66uB00S3wTt-42">
          <mxGeometry relative="1" as="geometry">
            <mxPoint x="230" y="580" as="targetPoint" />
            <Array as="points">
              <mxPoint x="50" y="770" />
              <mxPoint x="50" y="580" />
              <mxPoint x="230" y="580" />
            </Array>
          </mxGeometry>
        </mxCell>
        <mxCell id="g89Bsq32T66uB00S3wTt-42" value="Admin" style="html=1;verticalLabelPosition=bottom;align=center;labelBackgroundColor=#ffffff;verticalAlign=top;strokeWidth=2;strokeColor=#0080F0;shadow=0;dashed=0;shape=mxgraph.ios7.icons.user;fontSize=14;" parent="1" vertex="1">
          <mxGeometry x="-110" y="740" width="60" height="60" as="geometry" />
        </mxCell>
        <mxCell id="g89Bsq32T66uB00S3wTt-87" value="Tokyo Region" style="text;html=1;strokeColor=none;fillColor=none;align=center;verticalAlign=middle;whiteSpace=wrap;rounded=0;fontSize=21;fontColor=#64661D;opacity=10;" parent="1" vertex="1">
          <mxGeometry x="120" y="290" width="170" height="30" as="geometry" />
        </mxCell>
        <mxCell id="tX7fqVU8-ZiYfbRzvG7Q-1" value="Management Account" style="points=[[0,0],[0.25,0],[0.5,0],[0.75,0],[1,0],[1,0.25],[1,0.5],[1,0.75],[1,1],[0.75,1],[0.5,1],[0.25,1],[0,1],[0,0.75],[0,0.5],[0,0.25]];outlineConnect=0;gradientColor=none;html=1;whiteSpace=wrap;fontSize=14;fontStyle=0;container=1;pointerEvents=0;collapsible=0;recursiveResize=0;shape=mxgraph.aws4.group;grIcon=mxgraph.aws4.group_aws_cloud_alt;strokeColor=#232F3E;fillColor=none;verticalAlign=top;align=left;spacingLeft=30;fontColor=#232F3E;dashed=0;strokeWidth=2;" vertex="1" parent="1">
          <mxGeometry x="160" y="830" width="360" height="150" as="geometry" />
        </mxCell>
        <mxCell id="tX7fqVU8-ZiYfbRzvG7Q-7" value="Stack Set" style="sketch=0;outlineConnect=0;fontColor=#232F3E;gradientColor=none;fillColor=#0000FF;strokeColor=none;dashed=0;verticalLabelPosition=bottom;verticalAlign=top;align=center;html=1;fontSize=12;fontStyle=0;aspect=fixed;pointerEvents=1;shape=mxgraph.aws4.stack;" vertex="1" parent="tX7fqVU8-ZiYfbRzvG7Q-1">
          <mxGeometry x="150" y="50" width="40" height="38.97" as="geometry" />
        </mxCell>
        <mxCell id="tX7fqVU8-ZiYfbRzvG7Q-10" value="Create S3" style="edgeLabel;html=1;align=center;verticalAlign=middle;resizable=0;points=[];fontSize=14;" vertex="1" connectable="0" parent="1">
          <mxGeometry x="90" y="610" as="geometry" />
        </mxCell>
        <mxCell id="tX7fqVU8-ZiYfbRzvG7Q-12" value="1" style="ellipse;whiteSpace=wrap;html=1;aspect=fixed;fillColor=default;fontSize=18;labelBackgroundColor=default;endArrow=classic;rounded=1;strokeColor=#CC0066;strokeWidth=4;dashed=1;" vertex="1" parent="1">
          <mxGeometry x="-180" y="280" width="30" height="30" as="geometry" />
        </mxCell>
        <mxCell id="tX7fqVU8-ZiYfbRzvG7Q-13" value="2" style="ellipse;whiteSpace=wrap;html=1;aspect=fixed;fillColor=default;fontSize=18;labelBackgroundColor=default;endArrow=classic;rounded=1;strokeColor=#000000;fontColor=#64661D;strokeWidth=4;dashed=1;" vertex="1" parent="1">
          <mxGeometry x="-180" y="330" width="30" height="30" as="geometry" />
        </mxCell>
        <mxCell id="tX7fqVU8-ZiYfbRzvG7Q-14" value="3" style="ellipse;whiteSpace=wrap;html=1;aspect=fixed;fillColor=default;fontSize=18;labelBackgroundColor=default;endArrow=classic;rounded=1;strokeColor=#3333FF;strokeWidth=4;dashed=1;" vertex="1" parent="1">
          <mxGeometry x="-180" y="380" width="30" height="30" as="geometry" />
        </mxCell>
        <mxCell id="tX7fqVU8-ZiYfbRzvG7Q-15" value="Create Bucket" style="text;html=1;strokeColor=none;fillColor=none;align=left;verticalAlign=middle;whiteSpace=wrap;rounded=0;fontSize=19;" vertex="1" parent="1">
          <mxGeometry x="-143" y="280" width="150" height="30" as="geometry" />
        </mxCell>
        <mxCell id="tX7fqVU8-ZiYfbRzvG7Q-16" value="Upload template" style="text;html=1;strokeColor=none;fillColor=none;align=left;verticalAlign=middle;whiteSpace=wrap;rounded=0;fontSize=19;" vertex="1" parent="1">
          <mxGeometry x="-143" y="330" width="150" height="30" as="geometry" />
        </mxCell>
        <mxCell id="tX7fqVU8-ZiYfbRzvG7Q-17" value="Create StackSet" style="text;html=1;strokeColor=none;fillColor=none;align=left;verticalAlign=middle;whiteSpace=wrap;rounded=0;fontSize=19;" vertex="1" parent="1">
          <mxGeometry x="-143" y="380" width="150" height="30" as="geometry" />
        </mxCell>
        <mxCell id="tX7fqVU8-ZiYfbRzvG7Q-18" value="4" style="ellipse;whiteSpace=wrap;html=1;aspect=fixed;fillColor=default;fontSize=18;labelBackgroundColor=default;endArrow=classic;rounded=1;strokeColor=#3333FF;strokeWidth=4;dashed=1;" vertex="1" parent="1">
          <mxGeometry x="-180" y="430" width="30" height="30" as="geometry" />
        </mxCell>
        <mxCell id="tX7fqVU8-ZiYfbRzvG7Q-19" value="Create StackSet Instance" style="text;html=1;strokeColor=none;fillColor=none;align=left;verticalAlign=middle;whiteSpace=wrap;rounded=0;fontSize=19;" vertex="1" parent="1">
          <mxGeometry x="-143" y="430" width="150" height="30" as="geometry" />
        </mxCell>
        <mxCell id="tX7fqVU8-ZiYfbRzvG7Q-27" style="edgeStyle=orthogonalEdgeStyle;rounded=1;orthogonalLoop=1;jettySize=auto;html=1;fontSize=19;strokeColor=#3333FF;strokeWidth=2;" edge="1" parent="1" source="tX7fqVU8-ZiYfbRzvG7Q-22" target="g89Bsq32T66uB00S3wTt-21">
          <mxGeometry relative="1" as="geometry">
            <Array as="points">
              <mxPoint x="470" y="711" />
              <mxPoint x="470" y="420" />
            </Array>
          </mxGeometry>
        </mxCell>
        <mxCell id="tX7fqVU8-ZiYfbRzvG7Q-28" value="Update VPC" style="edgeLabel;html=1;align=center;verticalAlign=middle;resizable=0;points=[];fontSize=14;" vertex="1" connectable="0" parent="tX7fqVU8-ZiYfbRzvG7Q-27">
          <mxGeometry x="0.0523" y="-1" relative="1" as="geometry">
            <mxPoint x="49" y="-109" as="offset" />
          </mxGeometry>
        </mxCell>
        <mxCell id="tX7fqVU8-ZiYfbRzvG7Q-22" value="Stack Set" style="sketch=0;outlineConnect=0;fontColor=#232F3E;gradientColor=none;fillColor=#0000FF;strokeColor=none;dashed=0;verticalLabelPosition=bottom;verticalAlign=top;align=center;html=1;fontSize=12;fontStyle=0;aspect=fixed;pointerEvents=1;shape=mxgraph.aws4.stack;" vertex="1" parent="1">
          <mxGeometry x="310" y="691.03" width="40" height="38.97" as="geometry" />
        </mxCell>
        <mxCell id="tX7fqVU8-ZiYfbRzvG7Q-25" style="edgeStyle=orthogonalEdgeStyle;rounded=1;orthogonalLoop=1;jettySize=auto;html=1;fontSize=19;strokeColor=#000000;strokeWidth=2;" edge="1" parent="1" source="tX7fqVU8-ZiYfbRzvG7Q-7" target="tX7fqVU8-ZiYfbRzvG7Q-22">
          <mxGeometry relative="1" as="geometry" />
        </mxCell>
        <mxCell id="tX7fqVU8-ZiYfbRzvG7Q-26" value="Delegated" style="edgeLabel;html=1;align=center;verticalAlign=middle;resizable=0;points=[];fontSize=14;" vertex="1" connectable="0" parent="tX7fqVU8-ZiYfbRzvG7Q-25">
          <mxGeometry x="-0.16" y="-1" relative="1" as="geometry">
            <mxPoint x="49" y="-7" as="offset" />
          </mxGeometry>
        </mxCell>
        <mxCell id="tX7fqVU8-ZiYfbRzvG7Q-30" value="5" style="ellipse;whiteSpace=wrap;html=1;aspect=fixed;fillColor=default;fontSize=19;labelBackgroundColor=default;endArrow=classic;rounded=1;strokeColor=#3333FF;strokeWidth=2;" vertex="1" parent="1">
          <mxGeometry x="-180" y="480" width="30" height="30" as="geometry" />
        </mxCell>
        <mxCell id="tX7fqVU8-ZiYfbRzvG7Q-31" value="Update VPC Stack Instance" style="text;html=1;strokeColor=none;fillColor=none;align=left;verticalAlign=middle;whiteSpace=wrap;rounded=0;fontSize=19;" vertex="1" parent="1">
          <mxGeometry x="-143" y="480" width="213" height="30" as="geometry" />
        </mxCell>
        <mxCell id="tX7fqVU8-ZiYfbRzvG7Q-32" value="OU" style="fillColor=none;strokeColor=#5A6C86;dashed=1;verticalAlign=top;fontStyle=0;fontColor=#5A6C86;fontSize=19;strokeWidth=2;" vertex="1" parent="1">
          <mxGeometry x="580" y="330" width="440" height="650" as="geometry" />
        </mxCell>
      </root>
    </mxGraphModel>
  </diagram>
</mxfile>
